<svg xmlns="http://www.w3.org/2000/svg" viewBox="0 0 256 256" width="256" height="256" role="img" aria-label="Contentstack">
  <g fill="#7C4DFF">
    <rect x="70" y="40" width="68" height="15" rx="7.5"/>
    <rect x="45" y="60" width="81" height="15" rx="7.5"/>
    <rect x="23" y="80" width="89" height="15" rx="7.5"/>
    <rect x="23" y="100" width="89" height="15" rx="7.5"/>
    <rect x="45" y="120" width="81" height="15" rx="7.5"/>
    <rect x="70" y="140" width="68" height="15" rx="7.5"/>
    <rect x="118" y="101" width="68" height="15" rx="7.5"/>
    <rect x="130" y="121" width="81" height="15" rx="7.5"/>
    <rect x="144" y="141" width="89" height="15" rx="7.5"/>
    <rect x="144" y="161" width="89" height="15" rx="7.5"/>
    <rect x="130" y="181" width="81" height="15" rx="7.5"/>
    <rect x="118" y="201" width="68" height="15" rx="7.5"/>
  </g>
</svg>
